# xmcd
#
# Track frame offsets:
#	150
#	15797
#	27892
#	42737
#	57177
#	71607
#	88195
#	99542
#	129177
#	143867
#	171380
#	200165
#	217820
#	234377
#
# Disc length: 3323 seconds
#
# Revision: 0
# Processed by: cddbd v1.5.1PL0 Copyright (c) Steve Scherf et al.
# Submitted via: MusicWizard 7.0.2
#
DISCID=c00cf90e
DTITLE=Various Artist - The Infinite Summer Of Love
DYEAR=1900
DGENRE=Blues-Rock
TTITLE0=Soul Poets With Harvey Mandel - Pride Of Man
TTITLE1=Josef Brinkmann and Conspiracy Of Equals - Frantic Desolation
TTITLE2=Cave Gods - Plastic Fantastic Lover
TTITLE3=Gargoyles - Sweet Young Thing
TTITLE4=Steve Douglas - Come Up The Years
TTITLE5=Ron Nagle - Please Come Back
TTITLE6=Bolshoi Rodeo - Dawn On Me
TTITLE7=Toys In The Attic - White Bird
TTITLE8=The Beast - The Golden Road ..
TTITLE9=Scott Matthews - Children Of The Future - Time Has Come Today
TTITLE10=Henry Kaiser - Get High
TTITLE11=Naomi Ruth Eisenberg Etc - Slow Motion Ocean
TTITLE12=Dave Crimmen - Just A Little
TTITLE13=Sextants - San Francisco
EXTD=
EXTT0=
EXTT1=
EXTT2=
EXTT3=
EXTT4=
EXTT5=
EXTT6=
EXTT7=
EXTT8=
EXTT9=
EXTT10=
EXTT11=
EXTT12=
EXTT13=
PLAYORDER=
